<svg width="48" height="80" viewBox="0 0 48 80" fill="none" xmlns="http://www.w3.org/2000/svg">
<path fill-rule="evenodd" clip-rule="evenodd" d="M21.0312 0.0920277C18.4777 0.388434 16.4633 0.725778 14.98 1.10578C9.92672 2.40031 5.95234 4.72437 3.91906 7.57375C3.02453 8.8275 2.63984 9.75078 2.36313 11.3078C2.23891 12.0064 1.71266 13.8416 1.19375 15.3858L0.25 18.1934V42.9413C0.25 65.0159 0.276719 67.793 0.4975 68.6494C2.25281 75.4572 13.193 80.4019 25.4844 79.9425C33.8139 79.6314 40.8216 77.1547 44.7812 73.1228C46.0508 71.83 46.7747 70.737 47.3222 69.2863L47.6719 68.3594L47.7127 43.2813L47.7534 18.2031L46.8081 15.3906C46.2881 13.8437 45.7611 12.0064 45.6369 11.3078C45.3602 9.75078 44.9755 8.8275 44.0809 7.57375C41.5727 4.05875 36.1797 1.40609 29.4688 0.386403C27.9142 0.150153 22.237 -0.0478161 21.0312 0.0920277ZM28.0641 2.41593C31.565 2.82547 34.3467 3.565 36.9341 4.77406C38.9333 5.70828 40.3378 6.67687 41.5378 7.9489C42.7625 9.24734 43.3869 10.4805 43.4938 11.8128C43.5689 12.7494 43.3156 14.2967 43.0614 14.4537C42.992 14.4967 42.9705 14.3975 43.0134 14.2333C43.1716 13.6283 42.7525 11.7845 42.205 10.6764C39.9709 6.155 32.445 2.96875 24 2.96875C15.5558 2.96875 8.01875 6.15562 5.80547 10.662C5.22812 11.8375 4.86406 13.3355 4.97391 14.0839C5.07859 14.7962 4.82656 14.4341 4.62078 13.5761C4.15391 11.6298 4.77219 9.74047 6.46219 7.9489C9.13812 5.11234 13.9048 3.1325 19.7703 2.42156C22.0489 2.14547 25.7298 2.14281 28.0641 2.41593ZM29.3159 5.59937C30.3059 5.77562 31.8589 6.16328 32.7666 6.46062C40.1831 8.89015 42.8498 13.495 39.1256 17.4416C32.9278 24.0098 15.0722 24.0098 8.87437 17.4416C4.27547 12.5678 9.53641 6.87734 20.0156 5.39062C22.2509 5.07359 26.9566 5.17906 29.3159 5.59937ZM25.4844 9.20906C21.9109 10.083 20.7041 14.5959 23.3756 17.0948C24.1978 17.8639 24.8858 18.2075 25.9111 18.3612C26.6072 18.4656 35.1183 17.3397 36.1744 17.0036C36.468 16.9102 37.0138 16.5519 37.3872 16.2077C38.7661 14.9366 38.8488 12.9473 37.5825 11.5086C37.2123 11.0881 36.6969 10.7073 36.3019 10.5627C35.6398 10.32 27.1194 9.04844 26.3575 9.07844C26.1352 9.08734 25.7422 9.14609 25.4844 9.20906ZM30.9686 11.877C33.3664 12.2219 35.4519 12.5433 35.6033 12.5912C35.7545 12.6392 35.9877 12.8895 36.1209 13.1475C36.4263 13.7377 36.2867 14.4591 35.8064 14.7737C35.592 14.9142 33.6239 15.2653 30.8133 15.6647L26.1741 16.3237L25.4386 15.9353C24.0673 15.2111 23.6722 13.7109 24.4998 12.3716C24.8153 11.8611 25.8134 11.2609 26.3592 11.2534C26.4966 11.2516 28.5708 11.5322 30.9686 11.877ZM27.75 12.0312C27.4838 12.2975 27.4375 12.552 27.4375 13.75C27.4375 14.948 27.4838 15.2025 27.75 15.4687C28.1439 15.8627 28.7019 15.8681 29.178 15.4825C29.5172 15.208 29.5469 15.0684 29.5469 13.75C29.5469 12.4316 29.5172 12.292 29.178 12.0175C28.7019 11.6319 28.1439 11.6373 27.75 12.0312ZM5.35141 18.6125C8.44391 21.5848 13.787 23.7067 19.8594 24.3741C21.6697 24.5731 26.3303 24.5731 28.1406 24.3741C32.7917 23.863 37.3331 22.3894 40.428 20.3873C41.7744 19.5162 43.5155 17.8872 44.2364 16.8239L44.7477 16.0695L45.0873 17.0903L45.427 18.1109L45.1109 18.8258C44.937 19.2189 44.5105 19.9458 44.163 20.4411C43.4411 21.4703 43.4062 21.6739 43.8552 22.2445C44.198 22.6805 44.7344 22.7759 45.2603 22.4945C45.5584 22.335 45.5625 22.6137 45.5625 42.8567C45.5625 65.9738 45.662 64.1241 44.3086 66.1477C43.8811 66.7869 43.5312 67.4136 43.5312 67.5402C43.5312 67.6667 43.682 67.9622 43.8664 68.1966C44.1381 68.5419 44.3011 68.6111 44.7258 68.5614C45.0327 68.5256 45.25 68.5697 45.25 68.6678C45.25 69.1131 43.9625 70.9259 43.0034 71.8308C37.3548 77.1602 25.5111 79.2542 15.0222 76.7781C9.60203 75.4986 5.13406 72.8278 3.30594 69.7748C3.00016 69.2642 2.75 68.7838 2.75 68.707C2.75 68.6303 3.18953 68.9666 3.72656 69.4544C6.99172 72.4192 11.9195 74.4477 18.2188 75.4195C20.4453 75.7631 27.0533 75.8133 29.2344 75.5031C33.1961 74.9398 36.9583 73.8641 39.6156 72.5347C41.5958 71.5442 42.0398 70.8747 41.2442 70.0791C40.8559 69.6908 40.2183 69.807 38.7519 70.5339C36.3206 71.7391 33.1645 72.6894 29.8594 73.2116C27.6972 73.5531 22.4783 73.6806 20.1592 73.4483C11.8792 72.6194 5.13734 69.3163 3.04328 65.0628L2.51562 63.9911L2.47438 43.1506L2.43297 22.3103L3.56109 23.3547C6.90297 26.4489 11.7631 28.4813 18.2188 29.4839C20.4328 29.828 27.3959 29.8741 29.3906 29.5581C33.5536 28.8986 37.0241 27.8937 39.6156 26.5972C41.5958 25.6067 42.0398 24.9372 41.2442 24.1416C40.8556 23.753 40.218 23.8697 38.7519 24.5977C36.2808 25.8247 33.305 26.7192 29.8594 27.2708C27.7094 27.615 22.4891 27.7442 20.1592 27.5108C11.9202 26.6859 5.13594 23.3761 3.06609 19.1716L2.56125 18.1461L2.90672 17.1078L3.25234 16.0695L3.76359 16.8239C4.04484 17.2387 4.75938 18.0436 5.35141 18.6125Z" fill="black"/>
</svg>
