<svg width="21" height="22" viewBox="0 0 21 22" fill="none" xmlns="http://www.w3.org/2000/svg">
<path d="M12.4109 11L20.701 2.71C20.8648 2.5187 20.9504 2.27262 20.9407 2.02095C20.9309 1.76927 20.8266 1.53053 20.6485 1.35244C20.4704 1.17434 20.2317 1.07001 19.98 1.06029C19.7283 1.05057 19.4823 1.13618 19.291 1.3L11.0009 9.59L2.71095 1.29C2.52265 1.1017 2.26725 0.995911 2.00095 0.995911C1.73465 0.995911 1.47925 1.1017 1.29095 1.29C1.10265 1.47831 0.996858 1.7337 0.996858 2C0.996858 2.2663 1.10265 2.5217 1.29095 2.71L9.59095 11L1.29095 19.29C1.18627 19.3796 1.10125 19.49 1.04122 19.614C0.981201 19.7381 0.947471 19.8732 0.942151 20.0109C0.936832 20.1487 0.960037 20.286 1.01031 20.4143C1.06059 20.5427 1.13684 20.6592 1.2343 20.7567C1.33175 20.8541 1.4483 20.9304 1.57663 20.9806C1.70495 21.0309 1.84228 21.0541 1.98 21.0488C2.11772 21.0435 2.25285 21.0098 2.37692 20.9497C2.50098 20.8897 2.6113 20.8047 2.70095 20.7L11.0009 12.41L19.291 20.7C19.4823 20.8638 19.7283 20.9494 19.98 20.9397C20.2317 20.93 20.4704 20.8257 20.6485 20.6476C20.8266 20.4695 20.9309 20.2307 20.9407 19.9791C20.9504 19.7274 20.8648 19.4813 20.701 19.29L12.4109 11Z" fill="#61E000"/>
</svg>
