<svg width="16" height="16" viewBox="0 0 16 16" fill="none" xmlns="http://www.w3.org/2000/svg">
<path fill-rule="evenodd" clip-rule="evenodd" d="M7.99935 0.666664C3.94935 0.666664 0.666016 3.95 0.666016 8C0.666016 12.05 3.94935 15.3333 7.99935 15.3333C12.0493 15.3333 15.3327 12.05 15.3327 8C15.3327 3.95 12.0493 0.666664 7.99935 0.666664ZM11.178 6.76C11.2365 6.69309 11.2811 6.61516 11.3091 6.53078C11.337 6.4464 11.3478 6.35727 11.3409 6.26865C11.3339 6.18003 11.3092 6.09371 11.2684 6.01475C11.2276 5.93579 11.1713 5.8658 11.103 5.80889C11.0348 5.75198 10.9558 5.70931 10.8707 5.68337C10.7857 5.65744 10.6964 5.64877 10.6079 5.65788C10.5195 5.66699 10.4338 5.6937 10.3558 5.73642C10.2779 5.77914 10.2093 5.83703 10.154 5.90666L7.28735 9.346L5.80402 7.862C5.67828 7.74056 5.50988 7.67336 5.33508 7.67488C5.16028 7.6764 4.99308 7.74651 4.86947 7.87012C4.74586 7.99372 4.67575 8.16093 4.67423 8.33573C4.67271 8.51053 4.73991 8.67893 4.86135 8.80466L6.86135 10.8047C6.92685 10.8701 7.00528 10.9212 7.09163 10.9547C7.17797 10.9882 7.27035 11.0033 7.36286 10.9991C7.45538 10.9949 7.546 10.9715 7.62896 10.9303C7.71191 10.8891 7.78538 10.8311 7.84468 10.76L11.178 6.76Z" fill="#61E000"/>
</svg>
