<svg width="34" height="26" viewBox="0 0 34 26" fill="none" xmlns="http://www.w3.org/2000/svg">
<path d="M31.1667 0H2.83333C1.275 0 0 1.275 0 2.83333V22.6667C0 24.225 1.275 25.5 2.83333 25.5H31.1667C32.725 25.5 33.9858 24.225 33.9858 22.6667L34 2.83333C34 1.275 32.725 0 31.1667 0ZM11.3333 4.25C13.685 4.25 15.5833 6.14833 15.5833 8.5C15.5833 10.8517 13.685 12.75 11.3333 12.75C8.98167 12.75 7.08333 10.8517 7.08333 8.5C7.08333 6.14833 8.98167 4.25 11.3333 4.25ZM19.8333 21.25H2.83333V19.8333C2.83333 17 8.5 15.4417 11.3333 15.4417C14.1667 15.4417 19.8333 17 19.8333 19.8333V21.25ZM25.2875 15.5833H27.6108L29.75 18.4167L26.9308 21.2358C25.054 19.8293 23.6944 17.8422 23.0633 15.5833C22.8083 14.6767 22.6667 13.7275 22.6667 12.75C22.6667 11.7725 22.8083 10.8233 23.0633 9.91667C23.6907 7.65607 25.0511 5.66784 26.9308 4.26417L29.75 7.08333L27.6108 9.91667H25.2875C24.9758 10.8092 24.7917 11.7583 24.7917 12.75C24.7917 13.7417 24.9758 14.6908 25.2875 15.5833V15.5833Z" fill="#666666"/>
</svg>
